<svg width="19px" height="18px" viewBox="0 0 19 18" version="1.1" xmlns="http://www.w3.org/2000/svg" xmlns:xlink="http://www.w3.org/1999/xlink">
    <!-- Generator: Sketch 58 (84663) - https://sketch.com -->
    <title>Returns</title>
    <desc>Created with Sketch.</desc>
    <g id="Product-Suggestion---Sailthru" stroke="none" stroke-width="1" fill="none" fill-rule="evenodd">
        <g id="Artboard" transform="translate(-109.000000, -75.000000)" fill="#000000" fill-rule="nonzero">
            <g id="BENEFITS" transform="translate(109.000000, 36.000000)">
                <g id="Returns" transform="translate(0.000000, 39.000000)">
                    <polygon id="Stroke-1" points="1.35838519 14.3644383 13.2605889 14.3644383 13.2605889 13.7944383 1.35838519 13.7944383"></polygon>
                    <polygon id="Stroke-3" points="6.47752593 9.76602506 13.3886556 9.76602506 13.3886556 9.19602506 6.47752593 9.19602506"></polygon>
                    <g id="Group-15" transform="translate(0.000000, 0.035735)">
                        <path d="M13.00455,9.72259441 C14.1191968,9.72259441 15.02305,10.6281292 15.02305,11.7453799 C15.02305,12.8627029 14.1191247,13.7684808 13.00455,13.7684808 L13.00455,14.3384808 C14.4341886,14.3384808 15.59305,13.1772442 15.59305,11.7453799 C15.59305,10.3135638 14.4342365,9.15259441 13.00455,9.15259441 L13.00455,9.72259441 Z" id="Stroke-4"></path>
                        <polygon id="Stroke-6" points="8.09275808 8.07613851 7.68759646 7.67520952 5.94379873 9.43741662 7.68756907 11.2000778 8.09278548 10.7992041 6.74564672 9.43747141"></polygon>
                        <path d="M2.81848057,1.50573202 L0.885214517,5.48006973 L1.397804,5.7293728 L3.33107066,1.75503385 C3.43714018,1.53679162 3.63179765,1.40693384 3.8369537,1.40693384 L15.2987315,1.40693384 C15.5116413,1.40693384 15.7128537,1.54689687 15.8155238,1.77816916 L17.5662238,5.7203935 L18.087165,5.48904903 L16.3364799,1.54685808 C16.1450785,1.11571183 15.7443041,0.836933837 15.2987315,0.836933837 L3.8369537,0.836933837 C3.40686409,0.836933837 3.01722086,1.09685745 2.81848057,1.50573202 Z" id="Stroke-11"></path>
                        <polygon id="Stroke-13" points="8.90181852 1.40696538 10.4583926 1.40696538 10.4583926 5.80791579 11.0283926 5.80791579 11.0283926 0.836965377 8.33181852 0.836965377 8.33181852 5.80791579 8.90181852 5.80791579"></polygon>
                        <path d="M1,5.65021554 L18,5.65021554 L18,15.8450916 C18,16.6845644 17.3194728,17.3650916 16.48,17.3650916 L2.52,17.3650916 C1.68052718,17.3650916 1,16.6845644 1,15.8450916 L1,5.65021554 Z M1.57,6.22021554 L1.57,15.8450916 C1.57,16.3697621 1.99532949,16.7950916 2.52,16.7950916 L16.48,16.7950916 C17.0046705,16.7950916 17.43,16.3697621 17.43,15.8450916 L17.43,6.22021554 L1.57,6.22021554 Z" id="Rectangle"></path>
                    </g>
                </g>
            </g>
        </g>
    </g>
</svg>
