<svg width="26px" height="16px" viewBox="0 0 26 16" version="1.1" xmlns="http://www.w3.org/2000/svg" xmlns:xlink="http://www.w3.org/1999/xlink">
    <!-- Generator: Sketch 58 (84663) - https://sketch.com -->
    <title>Truck</title>
    <desc>Created with Sketch.</desc>
    <g id="Product-Suggestion---Sailthru" stroke="none" stroke-width="1" fill="none" fill-rule="evenodd">
        <g id="Artboard" transform="translate(-109.000000, -36.000000)" fill="#000000" fill-rule="nonzero">
            <g id="BENEFITS" transform="translate(109.000000, 36.000000)">
                <g id="Truck">
                    <path d="M8.96264493,12.768847 C8.96264493,14.0758602 7.88918178,15.1336452 6.56699275,15.1336452 C5.24510212,15.1336452 4.1717029,14.0757968 4.1717029,12.768847 C4.1717029,11.4618972 5.24510212,10.4040488 6.56699275,10.4040488 C7.88918178,10.4040488 8.96264493,11.4618338 8.96264493,12.768847 Z M8.36264493,12.768847 C8.36264493,11.7951967 7.55977086,11.0040488 6.56699275,11.0040488 C5.57452883,11.0040488 4.7717029,11.7952438 4.7717029,12.768847 C4.7717029,13.7424502 5.57452883,14.5336452 6.56699275,14.5336452 C7.55977086,14.5336452 8.36264493,13.7424973 8.36264493,12.768847 Z" id="Stroke-1"></path>
                    <path d="M19.965696,12.768847 C19.965696,14.0758602 18.8922329,15.1336452 17.5700439,15.1336452 C16.2481532,15.1336452 15.174754,14.0757968 15.174754,12.768847 C15.174754,11.4618972 16.2481532,10.4040488 17.5700439,10.4040488 C18.8922329,10.4040488 19.965696,11.4618338 19.965696,12.768847 Z M19.365696,12.768847 C19.365696,11.7951967 18.562822,11.0040488 17.5700439,11.0040488 C16.5775799,11.0040488 15.774754,11.7952438 15.774754,12.768847 C15.774754,13.7424502 16.5775799,14.5336452 17.5700439,14.5336452 C18.562822,14.5336452 19.365696,13.7424973 19.365696,12.768847 Z" id="Stroke-3"></path>
                    <polygon id="Stroke-5" points="15.475333 12.3675711 8.70565147 12.3545054 8.70449346 12.9545043 15.474175 12.96757"></polygon>
                    <path d="M19.665696,13.1830106 L20.9614931,13.1830106 C21.7729707,13.1830106 22.4328699,12.5331048 22.4328699,11.7292368 L22.4328699,9.22641863 C22.4328699,9.0607332 22.2985554,8.92641863 22.1328699,8.92641863 C21.9671845,8.92641863 21.8328699,9.0607332 21.8328699,9.22641863 L21.8328699,11.7292368 C21.8328699,12.1996673 21.443632,12.5830106 20.9614931,12.5830106 L19.665696,12.5830106 C19.5000106,12.5830106 19.365696,12.7173252 19.365696,12.8830106 C19.365696,13.0486961 19.5000106,13.1830106 19.665696,13.1830106 Z" id="Stroke-7"></path>
                    <path d="M7.51195652,5.74921441 L7.51195652,2.3397685 C7.51195652,1.92455449 7.82317615,1.59466896 8.1978231,1.59466896 L21.3573263,1.59466896 C21.73228,1.59466896 22.0435355,1.92451336 22.0435355,2.3397685 L22.0435355,3.96725707 C22.0435355,4.13294249 22.17785,4.26725707 22.3435355,4.26725707 C22.5092209,4.26725707 22.6435355,4.13294249 22.6435355,3.96725707 L22.6435355,2.3397685 C22.6435355,1.6006744 22.0716824,0.994668958 21.3573263,0.994668958 L8.1978231,0.994668958 C7.48373952,0.994668958 6.91195652,1.60074557 6.91195652,2.3397685 L6.91195652,5.74921441 C6.91195652,5.91489984 7.0462711,6.04921441 7.21195652,6.04921441 C7.37764195,6.04921441 7.51195652,5.91489984 7.51195652,5.74921441 Z" id="Stroke-9"></path>
                    <path d="M20.4078947,6.04921441 L25.3419966,6.04921441 C25.507682,6.04921441 25.6419966,5.91489984 25.6419966,5.74921441 C25.6419966,5.58352899 25.507682,5.44921441 25.3419966,5.44921441 L20.4078947,5.44921441 C20.2422093,5.44921441 20.1078947,5.58352899 20.1078947,5.74921441 C20.1078947,5.91489984 20.2422093,6.04921441 20.4078947,6.04921441 Z" id="Stroke-11"></path>
                    <path d="M17.0298627,7.8780816 L24.2204424,7.8780816 C24.3861278,7.8780816 24.5204424,7.74376702 24.5204424,7.5780816 C24.5204424,7.41239617 24.3861278,7.2780816 24.2204424,7.2780816 L17.0298627,7.2780816 C16.8641773,7.2780816 16.7298627,7.41239617 16.7298627,7.5780816 C16.7298627,7.74376702 16.8641773,7.8780816 17.0298627,7.8780816 Z" id="Stroke-13"></path>
                    <path d="M4.4717029,12.3675705 L2.32981884,12.3675705 C1.85548222,12.3675705 1.48126812,12.025245 1.48126812,11.6170179 L1.48126812,8.3335743 C1.48126812,8.06818699 1.4957618,7.92706545 1.55594012,7.76922417 C1.57892675,7.70893271 1.60786944,7.65261044 1.64359312,7.59985485 L4.91642328,4.38216168 C5.09488603,4.17202175 5.34702088,4.0584796 5.61633677,4.0584796 L7.15952899,4.0584796 L7.15952899,3.4584796 L5.61633677,3.4584796 C5.17260827,3.4584796 4.75155507,3.64808958 4.47624749,3.97539084 L1.18459319,7.2179863 C1.08453217,7.35536298 1.03442103,7.45287888 0.995304579,7.55547714 C0.901562963,7.80135136 0.881268116,7.99895745 0.881268116,8.3335743 L0.881268116,11.6170179 C0.881268116,12.3691335 1.53545116,12.9675705 2.32981884,12.9675705 L4.4717029,12.9675705 L4.4717029,12.3675705 Z" id="Stroke-15"></path>
                </g>
            </g>
        </g>
    </g>
</svg>
