<svg width="18px" height="20px" viewBox="0 0 18 20" version="1.1" xmlns="http://www.w3.org/2000/svg" xmlns:xlink="http://www.w3.org/1999/xlink">
    <!-- Generator: Sketch 58 (84663) - https://sketch.com -->
    <title>Warranty</title>
    <desc>Created with Sketch.</desc>
    <g id="Product-Suggestion---Sailthru" stroke="none" stroke-width="1" fill="none" fill-rule="evenodd">
        <g id="Artboard" transform="translate(-109.000000, -114.000000)" fill="#000000" fill-rule="nonzero">
            <g id="BENEFITS" transform="translate(109.000000, 36.000000)">
                <g id="Warranty" transform="translate(1.000000, 79.000000)">
                    <path d="M5.80978825,8.98120197 C5.69135067,8.86533912 5.50141264,8.86742635 5.38554979,8.98586393 C5.26968694,9.10430151 5.27177417,9.29423953 5.39021175,9.41010238 L7.63698387,11.6080316 L11.4416139,6.43869738 C11.5398255,6.30525772 11.5112675,6.11746728 11.3778278,6.01925568 C11.2443882,5.92104409 11.0565977,5.94960209 10.9583861,6.08304175 L7.56301613,10.6963162 L5.80978825,8.98120197 Z" id="Stroke-1"></path>
                    <path d="M8.07991514,18.2891601 C10.6098027,17.5899755 12.5987651,15.2863664 14.1299044,11.8565945 C15.1615231,9.54575521 15.8599216,7.0330045 16.285219,4.75919194 C16.3769072,4.26867166 16.0349358,3.79649787 15.5350909,3.73589103 C13.4250527,3.476691 10.9589272,1.93015162 8.72323787,-0.028472736 C8.31052269,-0.390555564 7.68947731,-0.390555564 7.27660309,-0.0283333076 C5.04107281,1.93015162 2.5749473,3.476691 0.46444255,3.73594796 C-0.0349357833,3.79649787 -0.376907156,4.26867166 -0.285225429,4.75915738 C0.140078431,7.0330045 0.838476917,9.54575521 1.8700956,11.8565945 C3.4012349,15.2863664 5.39019726,17.5899755 7.92008486,18.2891601 L8.07991514,18.2891601 Z M2.41797886,11.6120051 C1.40864768,9.35109019 0.721941463,6.88040681 0.304553261,4.64888003 C0.27624871,4.49745422 0.382873992,4.35023236 0.537130883,4.33152851 C2.80566231,4.05285972 5.3496839,2.45747071 7.67213878,0.422833484 C7.85876607,0.259101982 8.14123393,0.259101982 8.32770218,0.422694055 C10.6503161,2.45747071 13.1943377,4.05285972 15.4624026,4.33147157 C15.617126,4.35023236 15.7237513,4.49745422 15.6954403,4.64891458 C15.2780585,6.88040681 14.5913523,9.35109019 13.5820211,11.6120051 C12.1853276,14.7406168 10.4130046,16.8640592 8.24277521,17.6108074 L8,17.6880951 C5.71879383,17.0199724 3.86640176,14.8564913 2.41797886,11.6120051 Z" id="Stroke-2"></path>
                </g>
            </g>
        </g>
    </g>
</svg>
